<?xml version="1.0" encoding="utf-8"?>
<!-- Generator: Adobe Illustrator 26.3.1, SVG Export Plug-In . SVG Version: 6.00 Build 0)  -->
<svg version="1.1" id="Layer_1" xmlns="http://www.w3.org/2000/svg" xmlns:xlink="http://www.w3.org/1999/xlink" x="0px" y="0px"
	 viewBox="0 0 511.3 512" style="enable-background:new 0 0 511.3 512;" xml:space="preserve">
<style type="text/css">
	.st0{fill:#F0F5F5;}
	.st1{fill:#444444;}
</style>
<circle class="st0" cx="255.7" cy="256" r="251"/>
<path class="st1" d="M270.3,153.6v8.8c33.4,6.8,58.5,36.3,58.5,71.7v8.6c0,21.5,7.9,42.2,22.2,58.3l3.4,3.8
	c3.8,4.3,4.8,10.5,2.4,15.7s-7.6,8.6-13.3,8.6H167.9c-5.8,0-11-3.4-13.3-8.6c-2.4-5.3-1.4-11.4,2.4-15.7l3.4-3.8
	c14.3-16.1,22.2-36.8,22.2-58.3v-8.6c0-35.4,24.7-64.9,58.5-71.7v-8.8c0-8.1,6.5-14.6,14.6-14.6S270.3,145.5,270.3,153.6
	L270.3,153.6z M255.7,373c-7.8,0-15.2-3.1-20.7-8.5s-8.5-13.3-8.5-20.7h58.5c0,7.4-3.1,15.2-8.5,20.7S263,373,255.7,373z"/>
</svg>
