<?xml version="1.0" encoding="utf-8"?>
<!-- Generator: Adobe Illustrator 26.2.1, SVG Export Plug-In . SVG Version: 6.00 Build 0)  -->
<svg version="1.1" id="Layer_1" xmlns="http://www.w3.org/2000/svg" xmlns:xlink="http://www.w3.org/1999/xlink" x="0px" y="0px"
	 viewBox="0 0 1000 1000" style="enable-background:new 0 0 1000 1000;" xml:space="preserve">
<style type="text/css">
	.st0{fill:#FFFFFF;}
</style>
<g>
	<path class="st0" d="M500,0C223.9,0,0,223.9,0,500s223.9,500,500,500s500-223.9,500-500S776.1,0,500,0z M821.7,821.7
		c-41.8,41.8-90.5,74.6-144.6,97.5C621,943,561.4,955,500,955s-121-12-177.1-35.7c-54.2-22.9-102.8-55.7-144.6-97.5
		c-41.8-41.8-74.6-90.5-97.5-144.6C57,621,45,561.4,45,500s12-121,35.7-177.1c22.9-54.2,55.7-102.8,97.5-144.6
		c41.8-41.8,90.5-74.6,144.6-97.5C379,57,438.6,45,500,45s121,12,177.1,35.7c54.2,22.9,102.8,55.7,144.6,97.5
		c41.8,41.8,74.6,90.5,97.5,144.6C943,379,955,438.6,955,500s-12,121-35.7,177.1C896.3,731.2,863.5,779.9,821.7,821.7z"/>
	<path class="st0" d="M500,632.1c24.2,0,43.8-19.6,43.8-42.6V237.6c0-24.2-19.6-43.9-43.8-43.9s-43.8,19.6-43.8,43.9v349.5
		C456.2,612.5,475.8,632.1,500,632.1z"/>
	<path class="st0" d="M500,697.9c-30.3,0-54.8,24.5-54.8,54.8c0,30.3,24.5,53.6,54.8,53.6s54.8-24.5,54.8-53.6
		C554.8,723.7,530.3,697.9,500,697.9z"/>
</g>
</svg>
