<?xml version="1.0" encoding="utf-8"?>
<!-- Generator: Adobe Illustrator 26.2.1, SVG Export Plug-In . SVG Version: 6.00 Build 0)  -->
<svg version="1.1" id="Layer_1" xmlns="http://www.w3.org/2000/svg" xmlns:xlink="http://www.w3.org/1999/xlink" x="0px" y="0px"
	 viewBox="0 0 1000 1000" style="enable-background:new 0 0 1000 1000;" xml:space="preserve">
<style type="text/css">
	.st0{fill:#FFFFFF;}
</style>
<g>
	<path class="st0" d="M500,0C223.9,0,0,223.9,0,500s223.9,500,500,500s500-223.9,500-500S776.1,0,500,0z M821.7,821.7
		c-41.8,41.8-90.5,74.6-144.6,97.5C621,943,561.4,955,500,955s-121-12-177.1-35.7c-54.2-22.9-102.8-55.7-144.6-97.5
		s-74.6-90.5-97.5-144.6C57,621,45,561.4,45,500s12-121,35.7-177.1c22.9-54.2,55.7-102.8,97.5-144.6s90.5-74.6,144.6-97.5
		C379,57,438.6,45,500,45s121,12,177.1,35.7c54.2,22.9,102.8,55.7,144.6,97.5s74.6,90.5,97.5,144.6C943,379,955,438.6,955,500
		s-12,121-35.7,177.1C896.3,731.2,863.5,779.9,821.7,821.7z"/>
	<path class="st0" d="M695.8,325.9L425,595.6L304.2,473.9c-14.5-14.5-37.9-14.5-52.3,0c-14.4,14.5-14.4,37.8,0,52.3l148,148
		c14.5,14.5,37.8,14.5,52.3,0l295.9-295.9c14.5-14.5,14.5-37.8,0-52.3C733.6,311.4,710.3,311.4,695.8,325.9z"/>
</g>
</svg>
