<?xml version="1.0" encoding="UTF-8" standalone="no" ?>
<!DOCTYPE svg PUBLIC "-//W3C//DTD SVG 1.1//EN" "http://www.w3.org/Graphics/SVG/1.1/DTD/svg11.dtd">
<svg xmlns="http://www.w3.org/2000/svg" xmlns:xlink="http://www.w3.org/1999/xlink" version="1.1" width="1080" height="1080" viewBox="0 0 1080 1080" xml:space="preserve">
<desc>Created with Fabric.js 5.2.4</desc>
<defs>
</defs>
<g transform="matrix(1 0 0 1 540 540)" id="891a203a-988a-4fd7-b60a-7fa4e7996699"  >
<rect style="stroke: none; stroke-width: 1; stroke-dasharray: none; stroke-linecap: butt; stroke-dashoffset: 0; stroke-linejoin: miter; stroke-miterlimit: 4; fill: rgb(255,255,255); fill-rule: nonzero; opacity: 1; visibility: hidden;" vector-effect="non-scaling-stroke"  x="-540" y="-540" rx="0" ry="0" width="1080" height="1080" />
</g>
<g transform="matrix(1 0 0 1 540 540)" id="94f87997-bc69-42c4-a38f-d935e2e74ae1"  >
</g>
<g transform="matrix(1 0 0 1 540 470.44)" id="_x32_4_1_"  >
<path style="stroke: rgb(0,0,0); stroke-width: 0; stroke-dasharray: none; stroke-linecap: butt; stroke-dashoffset: 0; stroke-linejoin: miter; stroke-miterlimit: 4; fill: rgb(5,53,82); fill-rule: nonzero; opacity: 1;" vector-effect="non-scaling-stroke"  transform=" translate(28293, -10595.35)" d="M -28134.268 10198.376 C -28144.172 10198.098 -28154.913 10199.492 -28166.629 10203.261 C -28194.387000000002 10211.913 -28213.219 10229.777 -28223.4 10251.27 C -28233.164 10272.204 -28236.511000000002 10320.073 -28236.511000000002 10320.073 L -28349.359000000004 10320.491 C -28349.359000000004 10320.491 -28352.707000000006 10272.343 -28362.609000000004 10251.27 C -28372.513000000003 10229.777 -28391.484000000004 10211.495 -28419.103000000003 10203.261 C -28430.123000000003 10200.051000000001 -28441.56 10198.098 -28451.603000000003 10198.376 C -28481.173000000003 10199.073 -28763.08 10263.689 -28766.427000000003 10269.272 C -28767.683000000005 10271.366 -28728.765000000003 10308.767000000002 -28669.622000000003 10351.891000000001 L -28612.989 10295.230000000001 L -28589.555 10318.675000000001 L -28642.143 10371.289 C -28624.288 10383.291000000001 -28605.317 10395.433 -28585.372 10407.156 L -28529.298 10351.052000000001 L -28505.861999999997 10374.498000000001 L -28555.102 10423.763 C -28537.805 10432.974 -28519.951999999997 10441.626 -28501.817 10449.163 L -28445.604 10392.92 L -28422.17 10416.366 L -28467.922 10460.214 C -28415.752 10477.939 -28362.887 10473.219 -28315.461 10473.219 L -28270.266 10473.219 C -28225.352 10473.219 -28176.112 10468.726999999999 -28127.014 10451.839999999998 L -28164.397 10415.401999999998 L -28140.961 10392.436999999998 L -28092.979 10440.686999999998 C -28074.565 10433.150999999998 -28056.571 10424.896999999997 -28038.856 10416.244999999999 L -28080.704 10374.436999999998 L -28057.27 10351.020999999999 L -28008.03 10400.301 C -27987.525999999998 10389.136999999999 -27967.997 10377.561 -27949.585 10366.116 L -27997.011 10318.669 L -27973.576999999997 10295.226 L -27921.129999999997 10347.702000000001 C -27859.336999999996 10306.671 -27818.186999999998 10271.363000000001 -27819.581 10269.269 C -27822.791 10263.689 -28104.695 10199.073 -28134.268 10198.376 z M -28319.648 10488.487 L -28315.15 11054.294999999998 L -28315.15 11054.713999999998 C -28315.15 11059.457999999999 -28312.123000000003 11063.226999999999 -28307.38 11063.226999999999 C -28302.776 11063.087 -28299.89 11059.178999999998 -28299.89 11054.713999999998 L -28299.89 11054.294999999998 L -28266.363 10488.486999999997 L -28319.648 10488.486999999997 z M -28293.006 10127.48 C -28327.459000000003 10127.48 -28355.496000000003 10154.554 -28355.496000000003 10189.025 C -28355.496000000003 10211.215 -28343.779000000002 10225.944 -28326.203 10236.83 L -28324.25 10305.289 L -28261.76 10305.289 L -28259.806999999997 10236.83 C -28242.232999999997 10225.944 -28230.515999999996 10211.811 -28230.515999999996 10189.481 C -28230.516 10155.15 -28258.553 10127.48 -28293.006 10127.48 z M -28320.205 10933.854 C -28328.017000000003 10931.482 -28334.711000000003 10928.55 -28340.291 10924.921999999999 C -28351.451 10917.385999999999 -28356.055 10909.150999999998 -28356.055 10901.475999999999 C -28356.055 10893.801 -28351.451 10885.565999999999 -28340.291 10878.169999999998 C -28335.41 10874.819999999998 -28329.273 10871.748999999998 -28322.02 10869.655999999999 C -28322.438000000002 10855.699999999999 -28322.856 10841.743999999999 -28323.276 10827.649 C -28338.758 10824.16 -28352.288 10818.577 -28362.889000000003 10811.46 C -28379.768000000004 10799.876999999999 -28387.719000000005 10786.198999999999 -28387.719000000005 10772.242999999999 C -28387.719000000005 10758.565999999999 -28379.768000000004 10744.610999999999 -28362.889000000003 10733.026999999998 C -28352.846 10726.328999999998 -28340.571000000004 10720.884999999998 -28326.483000000004 10717.535999999998 C -28326.762000000002 10703.579999999998 -28327.042000000005 10689.623999999998 -28327.460000000003 10675.807999999999 C -28351.312 10671.340999999999 -28372.374000000003 10662.829 -28388.417 10651.663999999999 C -28411.989 10635.614 -28424.265000000003 10615.238 -28424.265000000003 10594.164999999999 C -28424.544 10555.507 -28398.181000000004 10562.765 -28371.398000000005 10554.81 C -28358.845000000005 10551.041 -28348.523000000005 10546.157 -28340.712000000003 10538.621 C -28336.806000000004 10534.853 -28332.202000000005 10529.687999999998 -28331.923000000003 10520.896999999999 C -28334.573000000004 10498.287999999999 -28357.45 10494.66 -28373.63 10494.797999999999 C -28380.884000000002 10495.077 -28386.882 10496.054999999998 -28389.114 10496.194 C -28439.468 10503.59 -28456.905000000002 10564.439 -28458.161 10594.164999999999 C -28458.161 10629.613 -28437.237 10660.177 -28406.968 10681.109999999999 C -28396.786 10688.088999999998 -28385.488 10694.088999999998 -28373.351000000002 10698.835 C -28376.142000000003 10700.369999999999 -28378.931000000004 10702.185 -28381.581000000002 10703.998 C -28405.015000000003 10719.907 -28421.755 10744.190999999999 -28421.755 10772.242 C -28421.755 10800.573 -28405.015 10824.577 -28381.581000000002 10840.487000000001 C -28375.583000000002 10844.534000000001 -28369.026 10848.302000000001 -28362.192000000003 10851.511 C -28378.792 10863.235 -28390.508 10880.959 -28390.508 10901.474 C -28390.508 10923.385 -28377.117000000002 10941.807 -28359.262000000002 10953.531 C -28347.686 10961.346000000001 -28334.155000000002 10966.648000000001 -28319.090000000004 10969.719000000001 C -28319.508 10957.72 -28319.926 10945.856 -28320.205 10933.854 z M -28370.002 10505.406 C -28361.215 10505.406 -28354.24 10509.314 -28354.24 10514.199 C -28354.24 10518.944000000001 -28361.215 10522.851 -28370.002 10522.851 C -28378.791 10522.851 -28385.766 10518.944000000001 -28385.766 10514.199 C -28385.766 10509.314 -28378.791 10505.406 -28370.002 10505.406 z M -28127.852 10594.167 C -28129.108 10564.440999999999 -28146.542999999998 10503.453 -28196.898999999998 10496.196 C -28203.453999999998 10495.498 -28210.01 10494.8 -28215.449999999997 10494.8 C -28231.351999999995 10495.079 -28251.438 10499.686 -28254.088999999996 10520.899 C -28253.670999999995 10529.689999999999 -28249.207999999995 10534.855 -28245.301999999996 10538.623 C -28237.350999999995 10546.159 -28227.168999999994 10551.044 -28214.613999999998 10554.812 C -28187.833 10562.767 -28161.328999999998 10555.509 -28161.748999999996 10594.167 C -28161.748999999996 10615.24 -28174.021999999997 10635.616 -28197.596999999998 10651.666 C -28213.638 10662.83 -28234.700999999997 10671.342999999999 -28258.553999999996 10675.81 C -28258.971999999998 10689.625 -28259.389999999996 10703.581 -28259.807999999997 10717.537999999999 C -28245.998999999996 10720.887999999999 -28238.676999999996 10726.051 -28229.051999999996 10732.610999999999 C -28212.035999999996 10743.775 -28208.340999999997 10757.590999999999 -28208.340999999997 10771.267999999998 C -28208.340999999997 10771.267999999998 -28208.340999999997 10771.407999999998 -28208.340999999997 10771.686999999998 L -28208.340999999997 10772.244999999999 C -28208.340999999997 10786.201 -28211.338999999996 10799.878999999999 -28228.215999999997 10811.462 C -28238.676999999996 10818.579 -28249.869999999995 10824.440999999999 -28265.352999999996 10827.791 C -28265.772999999994 10841.746 -28264.743999999995 10855.702 -28265.161999999997 10869.658 C -28258.466999999997 10871.751 -28256.333999999995 10874.543 -28251.452999999998 10877.751999999999 C -28240.015 10885.149 -28238.858999999997 10893.243999999999 -28238.858999999997 10900.779999999999 L -28238.858999999997 10901.476999999999 C -28238.858999999997 10909.152999999998 -28238.872999999996 10917.386999999999 -28250.030999999995 10924.922999999999 C -28255.331999999995 10928.551 -28260.290999999994 10931.482999999998 -28268.100999999995 10933.855 C -28268.379999999994 10945.857 -28267.442999999996 10957.72 -28267.860999999994 10969.722 C -28252.934999999994 10966.651 -28245.005999999994 10961.349 -28233.706999999995 10953.534 C -28215.991999999995 10942.09 -28208.341999999993 10923.946 -28208.341999999993 10902.595 L -28208.341999999993 10901.478 C -28208.341999999993 10901.478 -28208.341999999993 10901.199999999999 -28208.341999999993 10901.06 L -28208.341999999993 10899.803 C -28208.341999999993 10879.986 -28214.267999999993 10862.959 -28230.169999999995 10851.515 C -28223.194999999996 10848.305999999999 -28220.456999999995 10844.537 -28214.317999999996 10840.491 C -28191.024999999994 10824.581 -28177.823999999997 10800.717 -28177.823999999997 10773.084 L -28177.823999999997 10770.153 C -28177.823999999997 10742.381 -28188.825999999997 10718.934000000001 -28212.399999999998 10703.165 C -28214.770999999997 10701.769 -28213.645999999997 10700.234 -28216.016999999996 10698.977 C -28203.602999999996 10694.093 -28190.905999999995 10688.092 -28180.862999999998 10681.114000000001 C -28150.592 10660.179 -28127.852 10629.615 -28127.852 10594.167 z M -28210.848 10522.852 C -28219.635000000002 10522.852 -28226.61 10518.945000000002 -28226.61 10514.2 C -28226.61 10509.315 -28219.635000000002 10505.407000000001 -28210.848 10505.407000000001 C -28202.059 10505.407000000001 -28195.086000000003 10509.315 -28195.086000000003 10514.2 C -28195.086 10518.944 -28202.059 10522.852 -28210.848 10522.852 z" stroke-linecap="round" />
</g>
<g transform="matrix(1 0 0 1 524.13 1010.2)" style="" id="b40b8249-65e6-4482-8f9d-f8feb4351113"  >
		<text xml:space="preserve" font-family="Lato" font-size="129" font-style="normal" font-weight="400" style="stroke: none; stroke-width: 1; stroke-dasharray: none; stroke-linecap: butt; stroke-dashoffset: 0; stroke-linejoin: miter; stroke-miterlimit: 4; fill: rgb(0,0,0); fill-rule: nonzero; opacity: 1; white-space: pre;" ><tspan x="-286.44" y="40.52" >M</tspan><tspan x="-161.31" y="40.52" >e</tspan><tspan x="-87.27" y="40.52" >d</tspan><tspan x="-8.71" y="40.52" >C</tspan><tspan x="86.11" y="40.52" >e</tspan><tspan x="160.15" y="40.52" >n</tspan><tspan x="238.33" y="40.52" >t</tspan></text>
</g>
</svg>